<svg width="166" height="166" viewBox="0 0 166 166" fill="none" xmlns="http://www.w3.org/2000/svg">
    <rect width="166" height="166" rx="36" fill="#18181B"/>
    <rect x="10" y="10" width="146" height="146" rx="28" fill="#27272A"/>
    <path d="M46.5 85.5C46.5 64.2 62.2 48.4 84.4 48.4C96.7 48.4 106.5 52.7 113.4 60.2L101.8 71.3C97.5 66.8 91.9 64.3 84.9 64.3C72.4 64.3 63.7 72.9 63.7 85.5C63.7 98.6 72.5 107 85.9 107C91 107 95.8 106 99.7 103.6V92.6H83.9V77.9H116V112.3C108 118.8 96.9 122.9 84.9 122.9C62.4 122.9 46.5 107 46.5 85.5Z" fill="#F97316"/>
    <path d="M122.1 121.5C114.4 121.5 106.8 119.2 102.6 115.9L108 103.8C112 106.7 117.1 108.6 122.4 108.6C126.5 108.6 128.4 107.6 128.4 105.7C128.4 99.6 103.9 106.9 103.9 88.6C103.9 80 111 73.2 124.9 73.2C131 73.2 137.3 74.5 142 77.2L136.6 89.2C132.1 86.9 128.2 85.8 124.8 85.8C120.5 85.8 119 87.2 119 88.9C119 94.7 143.5 87.5 143.5 105.6C143.5 114.1 136.3 121.5 122.1 121.5Z" fill="#FFFFFF"/>
</svg>
